<svg width="57" height="56" viewBox="0 0 57 56" fill="none" xmlns="http://www.w3.org/2000/svg">
<rect width="57" height="56" rx="10" fill="#4CAF4F"/>
<path d="M38.4348 20.2413H35.1833C35.2135 19.7415 35.1519 19.2404 35.0016 18.7627C34.789 18.0882 34.3989 17.4833 33.8719 17.0115C33.345 16.5398 32.7009 16.2185 32.007 16.0814C31.4271 15.9624 30.8278 15.974 30.2529 16.1153C29.6778 16.2566 29.1415 16.524 28.6827 16.8983C28.2239 17.2725 27.8541 17.7442 27.6002 18.279C27.3462 18.8139 27.2144 19.3986 27.2144 19.9907C27.2144 20.0721 27.2144 20.1598 27.2144 20.2413H23.9692C23.2636 20.2429 22.5873 20.524 22.0884 21.0229C21.5894 21.5219 21.3083 22.1982 21.3067 22.9038V25.8044C20.7577 25.7608 20.2057 25.8313 19.6853 26.0115C19.1649 26.1916 18.6874 26.4775 18.2829 26.8512C17.8783 27.2248 17.5555 27.6782 17.3348 28.1827C17.114 28.6872 17 29.2319 17 29.7826C17 30.3333 17.114 30.8781 17.3348 31.3826C17.5555 31.887 17.8783 32.3404 18.2829 32.7141C18.6874 33.0877 19.1649 33.3736 19.6853 33.5538C20.2057 33.7339 20.7577 33.8044 21.3067 33.7608V37.3693C21.3083 38.075 21.5894 38.7513 22.0884 39.2503C22.5873 39.7492 23.2636 40.0302 23.9692 40.0319H38.4348C39.1404 40.0302 39.8167 39.7492 40.3156 39.2503C40.8146 38.7513 41.0957 38.075 41.0973 37.3693V22.9038C41.0957 22.1982 40.8146 21.5219 40.3156 21.0229C39.8167 20.524 39.1404 20.2429 38.4348 20.2413ZM39.5311 37.3693C39.5295 37.6596 39.4134 37.9375 39.2082 38.1428C39.003 38.348 38.7251 38.464 38.4348 38.4657H23.9692C23.679 38.464 23.4011 38.348 23.1958 38.1428C22.9906 37.9375 22.8745 37.6596 22.8729 37.3693V32.7835C22.8695 32.6599 22.8372 32.5387 22.7784 32.43C22.7196 32.3211 22.6361 32.2276 22.5346 32.157C22.4031 32.0684 22.2484 32.0205 22.0898 32.0191C21.9958 32.0211 21.9028 32.038 21.8141 32.0693C21.4065 32.2219 20.9653 32.262 20.5369 32.1852C20.1084 32.1086 19.7085 31.918 19.3792 31.6335C19.0498 31.349 18.8031 30.981 18.6649 30.5682C18.5268 30.1555 18.5023 29.7131 18.594 29.2877C18.6665 28.9467 18.8118 28.6254 19.0198 28.3456C19.2277 28.0658 19.4936 27.8342 19.7993 27.6665C20.1049 27.4988 20.4431 27.399 20.7908 27.3739C21.1385 27.3488 21.4876 27.399 21.8141 27.521C21.9332 27.5642 22.0608 27.5782 22.1864 27.5617C22.3119 27.5452 22.4316 27.4987 22.5354 27.4262C22.6393 27.3538 22.7241 27.2574 22.7828 27.1452C22.8416 27.033 22.8725 26.9084 22.8729 26.7817V22.9038C22.8729 22.613 22.9884 22.3342 23.194 22.1286C23.3996 21.923 23.6785 21.8075 23.9692 21.8075H28.1667C28.2913 21.8084 28.4143 21.7794 28.5253 21.7229C28.6364 21.6663 28.7322 21.5839 28.8047 21.4825C28.8772 21.3812 28.9243 21.2639 28.9419 21.1405C28.9595 21.0172 28.9471 20.8914 28.9059 20.7738C28.8242 20.5207 28.7819 20.2566 28.7806 19.9907C28.78 19.6383 28.8561 19.29 29.0037 18.97C29.1514 18.6501 29.367 18.3662 29.6356 18.1381C29.9042 17.9099 30.2193 17.7431 30.5589 17.6492C30.8985 17.5553 31.2545 17.5365 31.6022 17.5942C31.9498 17.6519 32.2806 17.7847 32.5717 17.9833C32.8628 18.182 33.1071 18.4416 33.2876 18.7443C33.468 19.0469 33.5804 19.3853 33.6167 19.7358C33.653 20.0863 33.6126 20.4405 33.4981 20.7738C33.4569 20.8914 33.4446 21.0172 33.4622 21.1405C33.4798 21.2639 33.5269 21.3812 33.5993 21.4825C33.6718 21.5839 33.7676 21.6663 33.8787 21.7229C33.9897 21.7794 34.1127 21.8084 34.2373 21.8075H38.4348C38.7255 21.8075 39.0044 21.923 39.21 22.1286C39.4156 22.3342 39.5311 22.613 39.5311 22.9038V37.3693Z" fill="white"/>
<path fill-rule="evenodd" clip-rule="evenodd" d="M25.9051 25.1553C26.1935 25.1553 26.4272 25.389 26.4272 25.6773V34.0305H35.8245C36.1128 34.0305 36.3465 34.2642 36.3465 34.5525C36.3465 34.8409 36.1128 35.0746 35.8245 35.0746H25.9051C25.6168 35.0746 25.3831 34.8409 25.3831 34.5525V25.6773C25.3831 25.389 25.6168 25.1553 25.9051 25.1553Z" fill="white"/>
<path fill-rule="evenodd" clip-rule="evenodd" d="M35.9036 27.2706C36.0958 27.4855 36.0775 27.8156 35.8626 28.0078L33.0728 30.504C32.8746 30.6813 32.5748 30.6813 32.3766 30.504L30.8538 29.1415L26.2407 33.011C26.0197 33.1963 25.6905 33.1675 25.5052 32.9466C25.3199 32.7257 25.3487 32.3964 25.5696 32.2111L30.5293 28.0508C30.7282 27.884 31.0195 27.8886 31.2129 28.0617L32.7247 29.4144L35.1664 27.2297C35.3813 27.0374 35.7113 27.0558 35.9036 27.2706Z" fill="white"/>
</svg>
