<svg width="57" height="56" viewBox="0 0 57 56" fill="none" xmlns="http://www.w3.org/2000/svg">
<rect width="57" height="56" rx="10" fill="#4CAF4F"/>
<path d="M28.0621 32.3378C29.5115 31.1157 30.5509 29.4765 31.0394 27.6423C31.528 25.8082 31.4419 23.8678 30.793 22.0843C30.144 20.3009 28.9636 18.7605 27.4117 17.6721C25.8598 16.5838 24.0115 16 22.1174 16C20.2232 16 18.3749 16.5838 16.823 17.6721C15.2711 18.7605 14.0907 20.3009 13.4418 22.0843C12.7928 23.8678 12.7068 25.8082 13.1953 27.6423C13.6838 29.4765 14.7232 31.1157 16.1726 32.3378C13.8219 33.404 11.7991 35.0818 10.3145 37.1968C10.051 37.5729 9.94709 38.0383 10.0255 38.4911C10.104 38.9438 10.3584 39.3469 10.7329 39.6119C11.0233 39.8199 11.3716 39.9312 11.7285 39.93C12.0062 39.9308 12.2799 39.8642 12.5261 39.7357C12.7724 39.6073 12.9839 39.4209 13.1426 39.1925C14.1542 37.7484 15.4979 36.5696 17.06 35.7559C18.6222 34.9421 20.3568 34.5173 22.1174 34.5173C23.8779 34.5173 25.6126 34.9421 27.1747 35.7559C28.7368 36.5696 30.0805 37.7484 31.0921 39.1925C31.2176 39.3912 31.3819 39.5622 31.5753 39.6953C31.7687 39.8284 31.987 39.9206 32.2171 39.9666C32.4471 40.0125 32.6841 40.0111 32.9136 39.9624C33.1431 39.9138 33.3603 39.8189 33.5521 39.6836C33.7439 39.5482 33.9063 39.3752 34.0293 39.1751C34.1524 38.975 34.2336 38.7518 34.268 38.5193C34.3025 38.2867 34.2894 38.0496 34.2296 37.8223C34.1698 37.5949 34.0645 37.3822 33.9202 37.1968C32.4356 35.0818 30.4128 33.404 28.0621 32.3378ZM16.3458 25.2662C16.3458 24.1221 16.6843 23.0037 17.3185 22.0524C17.9527 21.1012 18.8541 20.3597 19.9087 19.9219C20.9633 19.4841 22.1238 19.3695 23.2433 19.5927C24.3629 19.8159 25.3913 20.3669 26.1985 21.1759C27.0056 21.9848 27.5553 23.0156 27.778 24.1377C28.0007 25.2598 27.8864 26.4228 27.4496 27.4798C27.0127 28.5368 26.273 29.4402 25.3239 30.0759C24.3747 30.7115 23.2589 31.0507 22.1174 31.0507C20.5866 31.0507 19.1186 30.4413 18.0362 29.3565C16.9539 28.2717 16.3458 26.8003 16.3458 25.2662ZM45.2613 39.6119C44.9709 39.8199 44.6227 39.9312 44.2657 39.93C43.9885 39.9284 43.7157 39.8607 43.4698 39.7325C43.2239 39.6042 43.0121 39.4191 42.8517 39.1925C41.8379 37.7509 40.4936 36.5743 38.9319 35.7615C37.3702 34.9486 35.6366 34.5234 33.8769 34.5215C33.4177 34.5215 32.9773 34.3386 32.6526 34.0132C32.3279 33.6878 32.1454 33.2464 32.1454 32.7861C32.1454 32.3259 32.3279 31.8845 32.6526 31.559C32.9773 31.2336 33.4177 31.0507 33.8769 31.0507C35.4076 31.0507 36.8756 30.4413 37.958 29.3565C39.0404 28.2717 39.6485 26.8003 39.6485 25.2662C39.6485 23.732 39.0404 22.2607 37.958 21.1759C36.8756 20.091 35.4076 19.4816 33.8769 19.4816C33.3499 19.4806 32.8254 19.5536 32.3186 19.6985C32.0985 19.7643 31.8676 19.7856 31.6392 19.7611C31.4109 19.7365 31.1897 19.6667 30.9885 19.5557C30.7874 19.4447 30.6102 19.2947 30.4675 19.1144C30.3247 18.9341 30.2191 18.7272 30.1569 18.5056C30.0947 18.284 30.0771 18.0523 30.1051 17.8238C30.1332 17.5954 30.2062 17.3748 30.3201 17.1749C30.434 16.9751 30.5864 16.7999 30.7685 16.6596C30.9506 16.5194 31.1587 16.4168 31.3807 16.3579C32.1926 16.1263 33.0328 16.0095 33.8769 16.0109C35.7723 16.0053 37.6233 16.5854 39.1779 17.6721C40.7326 18.7588 41.9153 20.2993 42.5651 22.0838C43.2148 23.8683 43.3001 25.8102 42.8091 27.6451C42.3182 29.4799 41.2751 31.1185 39.8216 32.3378C42.1723 33.404 44.1951 35.0818 45.6798 37.1968C45.8121 37.3824 45.9063 37.5924 45.957 37.8148C46.0076 38.0372 46.0136 38.2674 45.9747 38.4921C45.9357 38.7168 45.8526 38.9315 45.7302 39.1238C45.6077 39.316 45.4483 39.4819 45.2613 39.6119Z" fill="white"/>
</svg>
