<svg width="57" height="55" viewBox="0 0 57 55" fill="none" xmlns="http://www.w3.org/2000/svg">
<rect width="57" height="55" rx="10" fill="#4CAF4F"/>
<path d="M36.8506 22.7793H27.7182C27.4515 22.7793 27.1956 22.8711 27.007 23.0344C26.8184 23.1978 26.7124 23.4193 26.7124 23.6502C26.7124 23.8812 26.8184 24.1028 27.007 24.2661C27.1956 24.4295 27.4515 24.5212 27.7182 24.5212H36.8506C37.1174 24.5212 37.3732 24.4295 37.5618 24.2661C37.7505 24.1028 37.8564 23.8812 37.8564 23.6502C37.8564 23.4193 37.7505 23.1978 37.5618 23.0344C37.3732 22.8711 37.1174 22.7793 36.8506 22.7793Z" fill="white"/>
<path d="M36.8506 26.0613H27.7182C27.4515 26.0613 27.1956 26.1531 27.007 26.3164C26.8184 26.4797 26.7124 26.7013 26.7124 26.9323C26.7124 27.1633 26.8184 27.3848 27.007 27.5482C27.1956 27.7115 27.4515 27.8033 27.7182 27.8033H36.8506C37.1174 27.8033 37.3732 27.7115 37.5618 27.5482C37.7505 27.3848 37.8564 27.1633 37.8564 26.9323C37.8564 26.7013 37.7505 26.4797 37.5618 26.3164C37.3732 26.1531 37.1174 26.0613 36.8506 26.0613Z" fill="white"/>
<path d="M36.8505 29.5033H32.586C32.3192 29.5033 32.0634 29.5951 31.8748 29.7584C31.6861 29.9217 31.5802 30.1433 31.5802 30.3742C31.5802 30.6052 31.6861 30.8268 31.8748 30.9901C32.0634 31.1534 32.3192 31.2452 32.586 31.2452H36.8505C37.1172 31.2452 37.373 31.1534 37.5617 30.9901C37.7502 30.8268 37.8563 30.6052 37.8563 30.3742C37.8563 30.1433 37.7502 29.9217 37.5617 29.7584C37.373 29.5951 37.1172 29.5033 36.8505 29.5033Z" fill="white"/>
<path d="M35.2412 14H25.6903C24.9001 14.0018 24.1428 14.275 23.5847 14.7596C23.0267 15.2442 22.7133 15.9007 22.7133 16.5851V30.04L19.3178 30.9597C18.9211 31.0661 18.5682 31.2693 18.3017 31.5451C18.0352 31.8209 17.8663 32.1574 17.8153 32.5143C17.7643 32.8712 17.8334 33.2332 18.0143 33.557C18.1952 33.8806 18.4802 34.1523 18.835 34.3391L18.9798 34.4158L16.7349 36.102C16.5125 36.2702 16.3325 36.4765 16.2062 36.7077C16.0799 36.939 16.0101 37.1903 16.001 37.446C15.9919 37.7016 16.0439 37.9562 16.1535 38.1937C16.2632 38.4312 16.4282 38.6466 16.6384 38.8264L18.5131 40.4569C18.7225 40.6366 18.972 40.7773 19.2463 40.8705C19.5207 40.9637 19.8142 41.0074 20.1087 40.999C20.4033 40.9904 20.6927 40.93 20.9593 40.8212C21.226 40.7124 21.4641 40.5576 21.6592 40.3663L23.6064 38.4432L23.6949 38.5686C23.9128 38.8733 24.2269 39.1174 24.6002 39.2722C24.9734 39.4269 25.39 39.4858 25.8008 39.4418C26.2114 39.3978 26.5988 39.2528 26.9173 39.0239C27.2357 38.795 27.4718 38.4919 27.5973 38.1505L28.5306 35.5585H38.9907C39.3835 35.5613 39.7729 35.4969 40.1368 35.369C40.5007 35.2413 40.832 35.0525 41.1115 34.8137C41.391 34.5748 41.6134 34.2906 41.7659 33.9772C41.9183 33.6638 41.9979 33.3274 42 32.9874V19.9784L35.2412 14ZM35.8205 17.0031L38.6045 19.4628H35.8125L35.8205 17.0031ZM25.6984 37.6349C25.6895 37.66 25.6712 37.6818 25.6465 37.6969C25.6217 37.7121 25.5919 37.7196 25.5616 37.7185C25.5374 37.72 25.5134 37.7156 25.492 37.7057C25.4707 37.6958 25.453 37.681 25.4409 37.6628L24.0248 35.656C24.0115 35.6389 23.9936 35.6248 23.9726 35.615C23.9514 35.6053 23.928 35.6003 23.9041 35.6003C23.8841 35.5998 23.8642 35.6033 23.8461 35.6105C23.8279 35.6177 23.8119 35.6286 23.7995 35.6421L20.1706 39.2166C20.1582 39.2301 20.1422 39.2409 20.1241 39.2482C20.1059 39.2554 20.086 39.2589 20.066 39.2584C20.0296 39.2696 19.9898 39.2696 19.9534 39.2584L18.0786 37.5931C18.052 37.5685 18.0372 37.5361 18.0372 37.5025C18.0372 37.4689 18.052 37.4365 18.0786 37.4119L22.2063 34.2764C22.2246 34.2647 22.2395 34.2495 22.2498 34.232C22.26 34.2144 22.2654 34.1951 22.2654 34.1754C22.2654 34.1557 22.26 34.1364 22.2498 34.1188C22.2395 34.1012 22.2246 34.086 22.2063 34.0743L19.889 32.848C19.8625 32.8397 19.8396 32.8247 19.8234 32.8046C19.8072 32.7847 19.7985 32.7609 19.7985 32.7365C19.7985 32.7121 19.8072 32.6883 19.8234 32.6683C19.8396 32.6484 19.8625 32.6333 19.889 32.625L28.0398 30.4162H28.08C28.103 30.4149 28.1258 30.4187 28.1465 30.4269C28.1673 30.4353 28.1854 30.4481 28.199 30.464C28.2126 30.48 28.2214 30.4986 28.2245 30.5183C28.2276 30.5379 28.225 30.5579 28.2168 30.5765L25.6984 37.6349ZM39.0149 33.8165H29.1824L30.1721 31.0921C30.2731 30.8123 30.2967 30.516 30.241 30.227C30.1851 29.9379 30.0516 29.6642 29.851 29.4281C29.6505 29.1921 29.3886 29.0002 29.0865 28.868C28.7845 28.7358 28.4507 28.667 28.1122 28.6673C27.8941 28.6672 27.6771 28.6954 27.4685 28.7509L24.7248 29.5034V16.5851C24.7248 16.3627 24.8263 16.1493 25.0071 15.9913C25.1879 15.8334 25.4335 15.7438 25.6903 15.742H33.8009V19.6439C33.803 20.0585 33.9947 20.4555 34.3341 20.748C34.6733 21.0405 35.1326 21.2047 35.6113 21.2047H39.9884V32.9874C39.9842 33.2085 39.8798 33.4194 39.6977 33.5746C39.5155 33.7296 39.2703 33.8165 39.0149 33.8165Z" fill="white"/>
</svg>
