<svg width="57" height="56" viewBox="0 0 57 56" fill="none" xmlns="http://www.w3.org/2000/svg">
<rect width="57" height="56" rx="10" fill="#4CAF4F"/>
<path fill-rule="evenodd" clip-rule="evenodd" d="M20.8068 18.3328C20.0768 18.3328 19.4849 18.8885 19.4849 19.5739V33.0735C19.8967 32.9303 20.3421 32.8521 20.8069 32.8521H37.515V18.3328H31.0244V26.7962C31.0244 27.2225 30.7768 27.6148 30.3784 27.8195C29.9801 28.0241 29.4947 28.0085 29.1122 27.7787L26.5765 26.2551L24.0408 27.7787C23.6583 28.0085 23.1729 28.0241 22.7746 27.8195C22.3763 27.6148 22.1286 27.2225 22.1286 26.7962V18.3328H20.8068ZM20.8068 16C18.7044 16 17 17.6001 17 19.5739V36.4261C17 38.3999 18.7044 40 20.8069 40H38.7575C39.4437 40 40 39.4778 40 38.8336C40 38.1894 39.4437 37.6672 38.7575 37.6672H20.8069C20.0768 37.6672 19.4849 37.1115 19.4849 36.4261C19.4849 35.7406 20.0768 35.185 20.8069 35.185H38.7575C39.4437 35.185 40 34.6628 40 34.0186C40 33.9601 39.9954 33.9026 39.9866 33.8465C39.9954 33.7904 39.9999 33.7331 39.9999 33.6747V17.8887C39.9999 16.8456 39.0993 16 37.9882 16H20.8068ZM24.6135 18.3328V24.6649L25.9068 23.8878C26.315 23.6425 26.838 23.6425 27.2463 23.8878L28.5395 24.6649V18.3328H24.6135Z" fill="#F8FDF8"/>
</svg>
