<svg width="57" height="55" viewBox="0 0 57 55" fill="none" xmlns="http://www.w3.org/2000/svg">
<rect width="57" height="55" rx="10" fill="#4CAF4F"/>
<path d="M13.7857 21.8182V22.3182H14.2857H41.7143H42.2143V21.8182V20.1136C42.2143 19.2266 41.8599 18.3766 41.23 17.7503C40.6002 17.124 39.7466 16.7727 38.8571 16.7727H17.1429C16.2534 16.7727 15.3998 17.124 14.77 17.7503C14.1401 18.3766 13.7857 19.2266 13.7857 20.1136V21.8182ZM42.2143 24.0909V23.5909H41.7143H14.2857H13.7857V24.0909V34.8864C13.7857 35.7733 14.1401 36.6234 14.77 37.2497C15.3998 37.876 16.2534 38.2273 17.1429 38.2273H38.8571C39.7466 38.2273 40.6002 37.876 41.23 37.2497C41.8599 36.6234 42.2143 35.7733 42.2143 34.8864V24.0909ZM12.5 20.1136C12.5 18.8909 12.9885 17.7178 13.8589 16.8523C14.7293 15.9868 15.9106 15.5 17.1429 15.5H38.8571C40.0894 15.5 41.2707 15.9868 42.1411 16.8523C43.0115 17.7178 43.5 18.8909 43.5 20.1136V34.8864C43.5 36.1091 43.0115 37.2822 42.1411 38.1477C41.2707 39.0132 40.0894 39.5 38.8571 39.5H17.1429C15.9106 39.5 14.7293 39.0132 13.8589 38.1477C12.9885 37.2822 12.5 36.1091 12.5 34.8864V20.1136ZM33.7143 31.4091H37.1429C37.3143 31.4091 37.4781 31.4768 37.5984 31.5965C37.7187 31.716 37.7857 31.8776 37.7857 32.0455C37.7857 32.2133 37.7187 32.3749 37.5984 32.4944C37.4781 32.6141 37.3143 32.6818 37.1429 32.6818H33.7143C33.5429 32.6818 33.3791 32.6141 33.2587 32.4944C33.1385 32.3749 33.0714 32.2133 33.0714 32.0455C33.0714 31.8776 33.1385 31.716 33.2587 31.5965C33.3791 31.4768 33.5429 31.4091 33.7143 31.4091Z" fill="white" stroke="white"/>
</svg>
