<svg width="15" height="10" viewBox="0 0 15 10" fill="none" xmlns="http://www.w3.org/2000/svg">
<path fill-rule="evenodd" clip-rule="evenodd" d="M9.62666 0.249447C9.84715 -0.0500706 10.2344 -0.0847574 10.4917 0.171972L14.7858 4.45768C14.9217 4.59338 15 4.79148 15 5C15 5.20852 14.9217 5.40662 14.7858 5.54233L10.4917 9.82803C10.2344 10.0848 9.84715 10.0501 9.62666 9.75055C9.40618 9.45104 9.43597 9.00011 9.6932 8.74338L12.7282 5.71428H0.613447C0.274649 5.71428 0 5.39449 0 5C0 4.60551 0.274649 4.28572 0.613447 4.28572H12.7282L9.6932 1.25662C9.43597 0.999892 9.40618 0.548965 9.62666 0.249447Z" fill="#4D4D4D"/>
</svg>
