<svg width="57" height="56" viewBox="0 0 57 56" fill="none" xmlns="http://www.w3.org/2000/svg">
<rect width="57" height="56" rx="10" fill="#4CAF4F"/>
<path d="M44 46V42C44 39.8783 43.1571 37.8434 41.6569 36.3431C40.1566 34.8429 38.1217 34 36 34H34C33.4696 34 32.9609 33.7893 32.5858 33.4142C32.2107 33.0391 32 32.5304 32 32V22C32 20.9391 31.5786 19.9217 30.8284 19.1716C30.0783 18.4214 29.0609 18 28 18C26.9391 18 25.9217 18.4214 25.1716 19.1716C24.4214 19.9217 24 20.9391 24 22V40L19.2 33.6C18.8274 33.1032 18.3443 32.7 17.7889 32.4223C17.2334 32.1446 16.621 32 16 32H15.132C13.402 32 12 33.402 12 35.132C12 35.7 12.154 36.258 12.446 36.744L18 46M28 12V10ZM40 24H42ZM14 24H16ZM18.686 14.686L17.272 13.272ZM37.314 14.686L38.728 13.272Z" fill="white"/>
<path d="M44 46V42C44 39.8783 43.1571 37.8434 41.6569 36.3431C40.1566 34.8429 38.1217 34 36 34H34C33.4696 34 32.9609 33.7893 32.5858 33.4142C32.2107 33.0391 32 32.5304 32 32V22C32 20.9391 31.5786 19.9217 30.8284 19.1716C30.0783 18.4214 29.0609 18 28 18C26.9391 18 25.9217 18.4214 25.1716 19.1716C24.4214 19.9217 24 20.9391 24 22V40L19.2 33.6C18.8274 33.1032 18.3443 32.7 17.7889 32.4223C17.2334 32.1446 16.621 32 16 32H15.132C13.402 32 12 33.402 12 35.132C12 35.7 12.154 36.258 12.446 36.744L18 46M28 12V10M40 24H42M14 24H16M18.686 14.686L17.272 13.272M37.314 14.686L38.728 13.272" stroke="white" stroke-linecap="round" stroke-linejoin="round"/>
</svg>
