<svg width="57" height="55" viewBox="0 0 57 55" fill="none" xmlns="http://www.w3.org/2000/svg">
<rect width="57" height="55" rx="10" fill="#4CAF4F"/>
<path d="M35.7455 37.1972C35.362 37.1972 35.0058 37.0923 34.6895 36.9236V36.9281C34.6895 37.5282 34.455 38.0917 34.0294 38.5138C33.6038 38.937 33.0376 39.1702 32.4348 39.1702C32.0457 39.1702 31.685 39.0628 31.3653 38.8896C31.333 39.4386 31.1124 39.9517 30.7187 40.3436C30.2931 40.7668 29.7269 41 29.1238 41C27.9255 41 26.9524 40.0633 26.8823 38.8892C26.5115 39.0885 26.0923 39.193 25.66 39.1654C24.4812 39.0885 23.5581 38.0757 23.5581 36.859V26.7743L22.4033 28.7637C21.9635 29.5246 21.1402 29.9971 20.2538 29.9971C19.8218 29.9971 19.3952 29.8844 19.0173 29.669C18.5467 29.3977 18.2101 28.9622 18.0701 28.4412C17.9294 27.9199 18.0022 27.3747 18.2742 26.9074C18.2746 26.9074 22.0524 20.4016 22.2829 20.0019C22.3103 19.9419 22.3884 19.7676 22.4548 19.6191C22.5182 19.4772 22.5726 19.3317 22.6248 19.1854C23.7641 15.9869 26.5851 14 29.9873 14C34.4053 14 37.9996 17.8759 37.9996 22.6401L38 34.9547C38 35.554 37.7658 36.1172 37.3406 36.5408C36.9151 36.964 36.3488 37.1972 35.7454 37.1972L35.7455 37.1972ZM29.9873 15.1914C27.0639 15.1914 24.7338 16.8335 23.754 19.5839C23.6914 19.7585 23.6261 19.9332 23.5499 20.1033C23.3288 20.5963 23.3288 20.5963 23.2665 20.6672L23.2583 20.6601C22.9498 21.2389 22.0334 22.8171 19.3116 27.5037C19.1997 27.6958 19.1701 27.919 19.2271 28.1325C19.2849 28.3459 19.4234 28.5258 19.6152 28.6359C20.2103 28.9759 21.0255 28.7564 21.3647 28.1687L23.6385 24.2539C23.7743 24.0207 24.049 23.9061 24.3124 23.977C24.5744 24.0468 24.7564 24.283 24.7564 24.5524V36.8594C24.7564 37.4401 25.1969 37.9412 25.7385 37.9767C26.0507 37.9931 26.3419 37.889 26.5607 37.6718C26.7596 37.474 26.8692 37.2105 26.8692 36.9288V28.8799C26.8692 28.5507 27.1375 28.2839 27.4685 28.2839C27.7995 28.2839 28.0678 28.5503 28.0678 28.8799L28.0674 38.7583C28.0674 39.3375 28.5414 39.8088 29.1238 39.8088C29.4068 39.8088 29.6725 39.6998 29.8717 39.5021C30.0706 39.3039 30.1802 39.0397 30.1802 38.7583V28.8799C30.1802 28.5507 30.4481 28.2839 30.7795 28.2839C31.1105 28.2839 31.3788 28.5503 31.3788 28.8799L31.3784 36.8362V36.9287C31.3784 37.5076 31.8524 37.9789 32.4352 37.9789C32.7178 37.9789 32.9827 37.8695 33.1831 37.671C33.382 37.4736 33.4916 37.2101 33.4916 36.9284V28.8794C33.4916 28.5503 33.7595 28.2835 34.0909 28.2835C34.4219 28.2835 34.6902 28.5499 34.6902 28.8794L34.6895 34.955C34.6895 35.5345 35.1634 36.0059 35.7455 36.0059C36.0288 36.0059 36.2937 35.8965 36.4926 35.6991C36.6923 35.5006 36.8015 35.2363 36.8015 34.955L36.8018 22.6404C36.8018 18.5335 33.7449 15.1915 29.9873 15.1915L29.9873 15.1914Z" fill="white"/>
<path d="M25.0616 21.7772L33.9582 16.4381C35.0308 15.7937 36.411 16.0675 37.0989 17.0618C37.35 17.424 37.4782 17.846 37.4982 18.2758C37.8299 18.1026 38.1908 18.0085 38.5581 18.0085C38.7462 18.0085 38.9351 18.032 39.1217 18.0784C39.7194 18.2278 40.2231 18.6015 40.5399 19.1299C40.857 19.6591 40.9495 20.2793 40.8002 20.8766C40.6624 21.4293 40.3264 21.8944 39.8592 22.2135C40.1859 22.4063 40.4677 22.6694 40.6681 23.0043C40.9852 23.5335 41.0777 24.1534 40.9288 24.7514C40.7794 25.3486 40.4059 25.8524 39.8769 26.1701L39.8738 26.172C40.1948 26.3644 40.4716 26.6248 40.6697 26.9547C40.9872 27.4839 41.0797 28.1041 40.9303 28.7021C40.7806 29.2997 40.4071 29.8035 39.8788 30.1208L29.0159 36.6401C26.9885 37.8563 24.6447 38.2762 22.4173 37.821C20.1699 37.3617 18.3087 36.0694 17.177 34.1821C15.3861 31.1962 15.6545 27.6683 17.8761 24.9757C17.9779 24.8528 18.0781 24.7276 18.169 24.5978C18.2654 24.4607 18.3779 24.2994 18.4163 24.2441C18.6462 23.8331 22.3986 17.07 22.3982 17.0708C22.7771 16.3868 23.4873 15.9996 24.2198 16C24.5615 16 24.9082 16.0841 25.228 16.2615C25.6142 16.4774 25.9386 16.7919 26.1655 17.171C26.6319 17.9487 26.6484 18.9219 26.2092 19.7095L25.0616 21.7772ZM25.1149 17.8015C24.9959 17.6029 24.8324 17.4447 24.6324 17.3325C24.2189 17.1037 23.6983 17.2527 23.4707 17.6648C20.7857 22.5038 19.8704 24.1529 19.5172 24.7397L19.5252 24.7416C19.4957 24.84 19.4957 24.84 19.1724 25.302C19.0626 25.4583 18.9433 25.6084 18.8216 25.7563C16.9112 28.0718 16.6894 30.9856 18.2276 33.5513C19.1805 35.1405 20.7553 36.2301 22.6621 36.6195C24.5897 37.0116 26.6214 36.6468 28.3847 35.5884L39.2486 29.0688C39.4966 28.9202 39.6716 28.684 39.7415 28.404C39.8114 28.1244 39.768 27.8337 39.619 27.5856C39.3127 27.0748 38.6474 26.907 38.1368 27.2146L32.7775 30.431C32.4872 30.6054 32.1102 30.5117 31.9363 30.221C31.762 29.9306 31.8561 29.5539 32.1463 29.3795L37.506 26.1631L39.2467 25.1185C39.4947 24.9694 39.6701 24.7333 39.74 24.4541C39.8098 24.1741 39.7665 23.883 39.6175 23.6353C39.3108 23.1241 38.6455 22.9578 38.1353 23.2643L31.0349 27.5253C30.7439 27.7001 30.3681 27.6056 30.1938 27.3152C30.0195 27.0249 30.1139 26.6481 30.4038 26.4738L39.1181 21.2442C39.3661 21.0952 39.5411 20.8594 39.611 20.5794C39.6809 20.2998 39.6375 20.0091 39.4889 19.761C39.3403 19.5133 39.1042 19.3382 38.8244 19.2683C38.543 19.1984 38.2535 19.2418 38.0063 19.39L36.3931 20.3582C36.3927 20.3582 36.3927 20.3586 36.3923 20.3586H36.3919L29.292 24.6197C29.001 24.7948 28.6248 24.7003 28.4509 24.4096C28.2766 24.1193 28.371 23.7425 28.6609 23.5681L35.7612 19.3071C36.0092 19.1581 36.1846 18.9219 36.2545 18.6427C36.3313 18.3362 36.2729 18.0228 36.091 17.7601C35.7754 17.3035 35.1005 17.1821 34.5888 17.4898L23.7327 24.0048C23.4951 24.1469 23.1907 24.1124 22.9914 23.9199C22.7918 23.7272 22.7469 23.4241 22.8812 23.1818L25.1386 19.1132C25.3651 18.7065 25.3563 18.2041 25.1148 17.8016L25.1149 17.8015Z" fill="white"/>
<path d="M39.8229 34.1826C38.6915 36.0701 36.8309 37.3621 34.5832 37.8214C32.3555 38.2757 30.0125 37.8567 27.9848 36.6404L17.1213 30.1211C16.5927 29.8039 16.2188 29.3 16.0691 28.7017C15.9205 28.1045 16.0134 27.4843 16.3301 26.9558C16.5278 26.6256 16.805 26.3652 17.1263 26.1728L17.1232 26.1709C16.5946 25.8537 16.2207 25.3498 16.0718 24.7522C15.9221 24.1547 16.015 23.534 16.3321 23.0049C16.5363 22.665 16.8162 22.3993 17.1355 22.2107C16.6718 21.8916 16.3378 21.4281 16.2004 20.8781C16.0507 20.2801 16.1436 19.6599 16.4607 19.1315C16.7774 18.6026 17.2814 18.229 17.8788 18.0796C18.0654 18.0328 18.2546 18.0097 18.442 18.0097C18.8097 18.0101 19.1706 18.1034 19.5023 18.277C19.5226 17.8473 19.6505 17.4252 19.9015 17.063C20.5898 16.0696 21.9688 15.7946 23.0429 16.4394L31.9389 21.7775L30.7922 19.7113C30.3523 18.9225 30.3684 17.9493 30.8348 17.1713C31.0621 16.7926 31.3869 16.4781 31.775 16.2604C32.094 16.0837 32.4395 16 32.7804 16C33.5124 16.0004 34.2234 16.3867 34.6019 17.0707C35.921 19.4483 38.4101 23.9323 38.5852 24.2453C38.6224 24.2995 38.7349 24.4608 38.8312 24.5978C38.923 24.728 39.022 24.8525 39.1245 24.9761C41.3458 27.6697 41.6137 31.1971 39.8228 34.1826L39.8229 34.1826ZM38.1787 25.7577C38.0566 25.6098 37.9369 25.4589 37.8279 25.3034C37.4962 24.8325 37.4877 24.8203 37.4628 24.697C37.075 24.0553 36.1292 22.3517 33.5291 17.6656C33.301 17.2543 32.7828 17.1042 32.3701 17.3323C32.167 17.446 32.0038 17.6046 31.8848 17.8031C31.6438 18.2052 31.6345 18.7075 31.8622 19.1154L34.1187 23.1827C34.2535 23.4254 34.2086 23.7281 34.0093 23.9208C33.8105 24.114 33.5064 24.1478 33.2676 24.0057L22.412 17.4909C21.9003 17.1841 21.2258 17.3043 20.9095 17.7613C20.7275 18.0239 20.6695 18.3373 20.7455 18.6434C20.8154 18.923 20.9908 19.1588 21.2392 19.3078C21.24 19.3082 21.2404 19.3089 21.2411 19.3093L28.339 23.569C28.6292 23.7434 28.7232 24.1197 28.5489 24.4104C28.3747 24.7004 27.9988 24.7952 27.7078 24.6205L18.9939 19.3911C18.7466 19.2429 18.4556 19.1991 18.1762 19.2694C17.8959 19.3393 17.6602 19.5144 17.5117 19.7629C17.3627 20.0106 17.3197 20.3013 17.3888 20.5809C17.4587 20.8605 17.6341 21.0966 17.8821 21.2456L19.5778 22.263L26.5957 26.4751C26.8859 26.6494 26.98 27.0258 26.8057 27.3165C26.6314 27.6065 26.2556 27.7009 25.9646 27.5266L18.8653 23.2657C18.3547 22.9585 17.6898 23.1251 17.3827 23.6367C17.2337 23.8848 17.1907 24.1755 17.2598 24.455C17.3297 24.7346 17.5051 24.9704 17.7535 25.1198L19.4941 26.1644L24.8528 29.3807C25.143 29.555 25.2371 29.9314 25.0628 30.2221C24.8885 30.5121 24.5127 30.6073 24.2217 30.4322L18.863 27.2159C18.6157 27.0676 18.3259 27.0239 18.0449 27.0941C17.7654 27.164 17.5289 27.3391 17.3804 27.5868C17.2318 27.8349 17.1884 28.126 17.2575 28.4052C17.3274 28.6848 17.5028 28.9206 17.7512 29.07L28.6147 35.5893C30.3776 36.6474 32.4106 37.0137 34.337 36.6204C36.2434 36.231 37.8182 35.1415 38.771 33.5524C40.3108 30.9862 40.0893 28.0722 38.1794 25.7576L38.1787 25.7577Z" fill="white"/>
</svg>
